<mxfile host="app.diagrams.net" modified="2023-04-04T19:39:44.287Z" agent="Mozilla/5.0 (Macintosh; Intel Mac OS X 10_15_7) AppleWebKit/537.36 (KHTML, like Gecko) Chrome/111.0.0.0 Safari/537.36" etag="Z5QA7kn0FVBH5Jsb1gwl" version="21.1.2" type="google">
  <diagram name="Page-1" id="7-rlpd69J8lShv4nDfNC">
    <mxGraphModel grid="1" page="1" gridSize="10" guides="1" tooltips="1" connect="1" arrows="1" fold="1" pageScale="1" pageWidth="827" pageHeight="1169" math="0" shadow="0">
      <root>
        <mxCell id="0" />
        <mxCell id="1" parent="0" />
        <mxCell id="iq8ARwcs5iairwc8FGMm-2" value="" style="edgeStyle=orthogonalEdgeStyle;rounded=0;orthogonalLoop=1;jettySize=auto;html=1;" edge="1" parent="1" source="9DpbGiGNJTCIXo_CBQFP-4" target="9DpbGiGNJTCIXo_CBQFP-5">
          <mxGeometry relative="1" as="geometry" />
        </mxCell>
        <mxCell id="9DpbGiGNJTCIXo_CBQFP-4" value="&lt;font style=&quot;font-size: 18px;&quot;&gt;Battery Cycler Data&lt;/font&gt;" style="shape=parallelogram;perimeter=parallelogramPerimeter;whiteSpace=wrap;html=1;fixedSize=1;" vertex="1" parent="1">
          <mxGeometry x="40" y="35" width="200" height="80" as="geometry" />
        </mxCell>
        <mxCell id="9DpbGiGNJTCIXo_CBQFP-5" value="&lt;font style=&quot;font-size: 18px;&quot;&gt;BattETL&lt;/font&gt;" style="rounded=0;whiteSpace=wrap;html=1;" vertex="1" parent="1">
          <mxGeometry x="280" y="35" width="200" height="80" as="geometry" />
        </mxCell>
        <mxCell id="iq8ARwcs5iairwc8FGMm-1" value="&lt;font style=&quot;font-size: 18px;&quot;&gt;BattDB&lt;/font&gt;" style="shape=datastore;whiteSpace=wrap;html=1;" vertex="1" parent="1">
          <mxGeometry x="530" y="30" width="127" height="90" as="geometry" />
        </mxCell>
        <mxCell id="iq8ARwcs5iairwc8FGMm-4" value="" style="edgeStyle=orthogonalEdgeStyle;rounded=0;orthogonalLoop=1;jettySize=auto;html=1;entryX=0;entryY=0.5;entryDx=0;entryDy=0;exitX=1;exitY=0.5;exitDx=0;exitDy=0;" edge="1" parent="1" source="9DpbGiGNJTCIXo_CBQFP-5" target="iq8ARwcs5iairwc8FGMm-1">
          <mxGeometry relative="1" as="geometry">
            <mxPoint x="240" y="85" as="sourcePoint" />
            <mxPoint x="290" y="85" as="targetPoint" />
          </mxGeometry>
        </mxCell>
      </root>
    </mxGraphModel>
  </diagram>
</mxfile>
